<svg id="Layer_1" data-name="Layer 1" xmlns="http://www.w3.org/2000/svg" viewBox="0 0 1380.8 455"><defs><style>.cls-1{fill:none;}.cls-2{isolation:isolate;}.cls-3{fill:#0d6178;}</style></defs><line class="cls-1" x1="99.7" y1="185.8" x2="96.5" y2="189"/><g class="cls-2"><path d="M976.2,395.7v-42h6.4l18.4,30.7h-3.4l18.1-30.7h6.4v42h-7.4V365.3h1.6l-15.4,25.6h-3.5l-15.6-25.6h1.8v30.4Z"/><path d="M1071.3,389.1H1095v6.5h-31.5v-42h30.7v6.5h-22.9v29Zm-.6-18h20.9v6.3h-20.9Z"/><path d="M1133.7,395.7v-42h18.4a26.5,26.5,0,0,1,12,2.6,19.6,19.6,0,0,1,10.9,18.3,21,21,0,0,1-2.9,11,19.5,19.5,0,0,1-8,7.3,25.3,25.3,0,0,1-12,2.7h-18.4Zm7.8-6.6h10.2a18.7,18.7,0,0,0,8.2-1.8,12.8,12.8,0,0,0,5.3-5,16.2,16.2,0,0,0,0-15.2,12.8,12.8,0,0,0-5.3-5,16.3,16.3,0,0,0-8.2-1.8h-10.2Z"/><path d="M1213.3,395.7v-42h7.8v42Z"/><path d="M1256.5,395.7l18.9-42h7.7l19,42h-8.2l-16.3-37.9h3.1l-16.2,37.9Zm8.7-9.8,2.1-6.1H1290l2.1,6.1Z"/></g><path class="cls-3" d="M460.7,293.7a67,67,0,0,1-36.3-10.1A72.1,72.1,0,0,1,399,256.2c-6.2-11.5-9.3-24.6-9.3-39.2a77.8,77.8,0,0,1,10.1-39.4A77.9,77.9,0,0,1,504.9,150a73.8,73.8,0,0,1,27.3,27.6c6.7,11.6,10.1,24.8,10.1,39.4H531.5c0,14.6-3.1,27.7-9.3,39.2a71.4,71.4,0,0,1-25.4,27.4C486.3,290.4,474.2,293.7,460.7,293.7Zm5.6-24.9a47.6,47.6,0,0,0,25.2-6.8A48.2,48.2,0,0,0,509,243.4a55.5,55.5,0,0,0,6.4-26.5c0-10-2.1-18.9-6.4-26.7a49,49,0,0,0-17.5-18.6,48.7,48.7,0,0,0-68,18.6,57.7,57.7,0,0,0,0,53.2A49.5,49.5,0,0,0,441.2,262,47.7,47.7,0,0,0,466.3,268.8Zm62,24.1a13.7,13.7,0,0,1-14.1-14.1V236.4l5.3-29.4,23,10v61.8a13.6,13.6,0,0,1-4,10.1A13.8,13.8,0,0,1,528.3,292.9Z"/><path class="cls-3" d="M653.3,293.7a76,76,0,0,1-38.9-10.1A74.1,74.1,0,0,1,587,256c-6.7-11.6-10.1-24.8-10.1-39.4s3.1-27.7,9.3-39.2A71.4,71.4,0,0,1,611.6,150a67,67,0,0,1,36.3-10.1,67.9,67.9,0,0,1,30.2,6.8,69,69,0,0,1,23.3,18.4V90.3a13.7,13.7,0,0,1,4-10.3,13.9,13.9,0,0,1,10.1-3.9A14,14,0,0,1,725.8,80a13.9,13.9,0,0,1,3.9,10.3V216.7a77.8,77.8,0,0,1-10.1,39.4,75.3,75.3,0,0,1-27.3,27.6C680.7,290.4,667.7,293.7,653.3,293.7Zm0-24.9a47.6,47.6,0,0,0,25.2-6.8A48.5,48.5,0,0,0,696,243.3a55.9,55.9,0,0,0,6.4-26.6c0-10-2.1-18.8-6.4-26.6a48.4,48.4,0,0,0-17.5-18.4,49.9,49.9,0,0,0-50.3,0,48.9,48.9,0,0,0-17.7,18.4,54,54,0,0,0-6.5,26.6,54.8,54.8,0,0,0,6.5,26.6A49,49,0,0,0,628.2,262,48,48,0,0,0,653.3,268.8Z"/><path class="cls-3" d="M770.3,170.4a13.3,13.3,0,0,1-9.4-3.3,10.8,10.8,0,0,1-3.6-8.3,11.5,11.5,0,0,1,3.6-8.9,13.3,13.3,0,0,1,9.4-3.3h62.9a13.3,13.3,0,0,1,9.4,3.3,11.5,11.5,0,0,1,3.6,8.9,10.8,10.8,0,0,1-3.6,8.3,13.3,13.3,0,0,1-9.4,3.3Zm26,122.2a13.4,13.4,0,0,1-10.1-4.2,13.8,13.8,0,0,1-4-10V141.9a78,78,0,0,1,6.9-33,55.4,55.4,0,0,1,20.6-23.8c9.1-5.9,20.6-8.9,34.2-8.9a94.8,94.8,0,0,1,13.6,1,98.5,98.5,0,0,1,15,3.2c6.1,1.7,10.4,3.7,13,6a11.8,11.8,0,0,1,3.9,9.3c0,4.6-1.3,7.7-4,9.3s-7,1.5-12.9-.1a62.5,62.5,0,0,0-14.6-2.6c-4.5-.3-8.7-.4-12.6-.4-10.3,0-18.8,3.3-25.2,10s-9.7,15.8-9.7,27.4V278.7a13.8,13.8,0,0,1-4,10A14.1,14.1,0,0,1,796.3,292.6Zm115.3,0a36.2,36.2,0,0,1-21.6-6.7,43.7,43.7,0,0,1-14.7-18.2,63.3,63.3,0,0,1-5.3-26.5V90a13.9,13.9,0,1,1,27.8,0V241.3c0,6.8,1.3,12.5,3.9,16.9s5.9,6.7,10,6.7h6.9a11.4,11.4,0,0,1,9,3.9,14.5,14.5,0,0,1,3.5,10,12,12,0,0,1-5.3,10c-3.5,2.6-8,3.9-13.6,3.9h-.6Z"/><path class="cls-3" d="M1019.2,293.7c-15,0-28.2-3.3-39.6-9.8a70.6,70.6,0,0,1-27-27.2c-6.6-11.5-9.8-24.8-9.8-39.8s3.3-28.5,9.8-40a72.7,72.7,0,0,1,27-27.2c11.5-6.6,24.7-9.8,39.6-9.8s27.9,3.3,39.4,9.8a70.6,70.6,0,0,1,27,27.2c6.6,11.5,9.8,24.9,9.8,40s-3.2,28.2-9.7,39.8a71,71,0,0,1-26.9,27.2C1047.3,290.5,1034.1,293.7,1019.2,293.7Zm0-24.9c9.6,0,18.1-2.2,25.5-6.7a45.5,45.5,0,0,0,17.3-18.3c4.1-7.8,6.2-16.7,6.2-26.9s-2.1-19.2-6.2-27a45.8,45.8,0,0,0-17.3-18.4,49,49,0,0,0-25.5-6.7c-9.6,0-18.1,2.2-25.5,6.7a47.7,47.7,0,0,0-17.5,18.4c-4.3,7.9-6.4,16.9-6.4,27s2.1,19.1,6.4,26.9a46.7,46.7,0,0,0,17.5,18.3C1001,266.6,1009.6,268.8,1019.2,268.8Z"/><path class="cls-3" d="M1164.1,292.6a14.3,14.3,0,0,1-8.2-2.6,13.3,13.3,0,0,1-5.1-6.5l-41-123.1c-1.5-5.7-1.4-10.4.1-14s5-5.4,10.4-5.4a13.2,13.2,0,0,1,8.7,2.9c2.3,1.9,4.2,5.2,5.7,9.8l34.9,109.2h-9.7l33-111.4a15.6,15.6,0,0,1,4.7-7.6c2.2-1.9,5.3-2.9,9.1-2.9a13.7,13.7,0,0,1,9,2.9,14.2,14.2,0,0,1,4.6,7.6l26.9,104.8H1243l32.7-102.5c2.6-8.5,7.4-12.7,14.4-12.7q7.8,0,10.5,5.4c1.8,3.6,1.8,8.3-.3,14l-41,123.1a11.6,11.6,0,0,1-4.7,6.5,13.4,13.4,0,0,1-8.3,2.6,14.8,14.8,0,0,1-8.3-2.6,11.6,11.6,0,0,1-5-6.5L1204.5,178h2.8l-29.9,105.6a11.5,11.5,0,0,1-4.9,6.5A14.3,14.3,0,0,1,1164.1,292.6Z"/></svg>